HIERARCHY
ROOT mixamorig:Hips
{
	OFFSET 0.000000 104.274902 0.000000
	CHANNELS 6 Xposition Yposition Zposition Xrotation Yrotation Zrotation
	JOINT mixamorig:Spine
	{
		OFFSET 0.000000 10.181549 0.131524
		CHANNELS 6 Xposition Yposition Zposition Xrotation Yrotation Zrotation
		JOINT mixamorig:Spine1
		{
			OFFSET 0.000000 9.893990 -1.470706
			CHANNELS 3 Xrotation Yrotation Zrotation
			JOINT mixamorig:Spine2
			{
				OFFSET 0.000000 9.220787 -1.370637
				CHANNELS 3 Xrotation Yrotation Zrotation
				JOINT mixamorig:Neck
				{
					OFFSET 0.000000 16.740372 -2.049022
					CHANNELS 6 Xposition Yposition Zposition Xrotation Yrotation Zrotation
					JOINT mixamorig:Head
					{
						OFFSET 0.000000 9.617859 1.684976
						CHANNELS 6 Xposition Yposition Zposition Xrotation Yrotation Zrotation
						JOINT mixamorig:HeadTop_End
						{
							OFFSET 0.000000 22.037384 7.501072
							CHANNELS 6 Xposition Yposition Zposition Xrotation Yrotation Zrotation
							End Site
							{
								OFFSET 0.000000 23.106567 -2.828246
							}
						}
					}
				}
				JOINT mixamorig:RightShoulder
				{
					OFFSET -4.570000 11.014877 -2.160840
					CHANNELS 6 Xposition Yposition Zposition Xrotation Yrotation Zrotation
					JOINT mixamorig:RightArm
					{
						OFFSET -10.592867 -0.524796 -2.232105
						CHANNELS 3 Xrotation Yrotation Zrotation
						JOINT mixamorig:RightForeArm
						{
							OFFSET -27.841497 0.000000 -0.000002
							CHANNELS 3 Xrotation Yrotation Zrotation
							JOINT mixamorig:RightHand
							{
								OFFSET -28.328812 0.000000 -0.000001
								CHANNELS 3 Xrotation Yrotation Zrotation
								JOINT mixamorig:RightHandThumb1
								{
									OFFSET -2.464798 -1.573990 2.681911
									CHANNELS 6 Xposition Yposition Zposition Xrotation Yrotation Zrotation
									JOINT mixamorig:RightHandThumb2
									{
										OFFSET -3.244781 -1.873383 1.873376
										CHANNELS 3 Xrotation Yrotation Zrotation
										JOINT mixamorig:RightHandThumb3
										{
											OFFSET -2.646263 -1.527817 1.527818
											CHANNELS 6 Xposition Yposition Zposition Xrotation Yrotation Zrotation
											JOINT mixamorig:RightHandThumb4
											{
												OFFSET -1.994591 -1.151581 1.151575
												CHANNELS 6 Xposition Yposition Zposition Xrotation Yrotation Zrotation
												End Site
												{
													OFFSET -1.860176 -1.142715 1.365483
												}
											}
										}
									}
								}
								JOINT mixamorig:RightHandIndex1
								{
									OFFSET -9.108299 -0.517883 2.259803
									CHANNELS 6 Xposition Yposition Zposition Xrotation Yrotation Zrotation
									JOINT mixamorig:RightHandIndex2
									{
										OFFSET -3.699997 0.000000 0.000000
										CHANNELS 3 Xrotation Yrotation Zrotation
										JOINT mixamorig:RightHandIndex3
										{
											OFFSET -2.850006 0.000000 0.000000
											CHANNELS 3 Xrotation Yrotation Zrotation
											JOINT mixamorig:RightHandIndex4
											{
												OFFSET -2.772194 0.000000 0.000000
												CHANNELS 3 Xrotation Yrotation Zrotation
												End Site
												{
													OFFSET -2.772202 0.000000 -0.000484
												}
											}
										}
									}
								}
								JOINT mixamorig:RightHandMiddle1
								{
									OFFSET -9.532501 0.000000 -0.000000
									CHANNELS 6 Xposition Yposition Zposition Xrotation Yrotation Zrotation
									JOINT mixamorig:RightHandMiddle2
									{
										OFFSET -3.699997 0.000000 0.000000
										CHANNELS 3 Xrotation Yrotation Zrotation
										JOINT mixamorig:RightHandMiddle3
										{
											OFFSET -2.949997 0.000000 0.000000
											CHANNELS 3 Xrotation Yrotation Zrotation
											JOINT mixamorig:RightHandMiddle4
											{
												OFFSET -2.946594 0.000000 0.000000
												CHANNELS 3 Xrotation Yrotation Zrotation
												End Site
												{
													OFFSET -2.946602 0.000000 -0.000982
												}
											}
										}
									}
								}
								JOINT mixamorig:RightHandRing1
								{
									OFFSET -9.103600 -0.043106 -1.865100
									CHANNELS 6 Xposition Yposition Zposition Xrotation Yrotation Zrotation
									JOINT mixamorig:RightHandRing2
									{
										OFFSET -3.379303 0.000000 0.000000
										CHANNELS 3 Xrotation Yrotation Zrotation
										JOINT mixamorig:RightHandRing3
										{
											OFFSET -2.889694 0.000000 0.000000
											CHANNELS 3 Xrotation Yrotation Zrotation
											JOINT mixamorig:RightHandRing4
											{
												OFFSET -2.638802 0.000000 0.000000
												CHANNELS 3 Xrotation Yrotation Zrotation
												End Site
												{
													OFFSET -2.638802 0.000000 0.004218
												}
											}
										}
									}
								}
								JOINT mixamorig:RightHandPinky1
								{
									OFFSET -8.076698 -0.486725 -3.806299
									CHANNELS 6 Xposition Yposition Zposition Xrotation Yrotation Zrotation
									JOINT mixamorig:RightHandPinky2
									{
										OFFSET -3.600006 0.000000 0.000000
										CHANNELS 3 Xrotation Yrotation Zrotation
										JOINT mixamorig:RightHandPinky3
										{
											OFFSET -2.099998 0.000000 0.000000
											CHANNELS 3 Xrotation Yrotation Zrotation
											JOINT mixamorig:RightHandPinky4
											{
												OFFSET -2.115791 0.000000 0.000000
												CHANNELS 3 Xrotation Yrotation Zrotation
												End Site
												{
													OFFSET -2.115799 0.000000 0.000174
												}
											}
										}
									}
								}
							}
						}
					}
				}
				JOINT mixamorig:LeftShoulder
				{
					OFFSET 4.570400 11.014679 -2.160816
					CHANNELS 6 Xposition Yposition Zposition Xrotation Yrotation Zrotation
					JOINT mixamorig:LeftArm
					{
						OFFSET 10.592373 -0.524597 -2.232116
						CHANNELS 3 Xrotation Yrotation Zrotation
						JOINT mixamorig:LeftForeArm
						{
							OFFSET 27.841488 0.000000 0.000001
							CHANNELS 3 Xrotation Yrotation Zrotation
							JOINT mixamorig:LeftHand
							{
								OFFSET 28.328808 0.000000 -0.000000
								CHANNELS 3 Xrotation Yrotation Zrotation
								JOINT mixamorig:LeftHandThumb1
								{
									OFFSET 2.466103 -1.576202 2.681698
									CHANNELS 6 Xposition Yposition Zposition Xrotation Yrotation Zrotation
									JOINT mixamorig:LeftHandThumb2
									{
										OFFSET 3.243317 -1.872528 1.872530
										CHANNELS 3 Xrotation Yrotation Zrotation
										JOINT mixamorig:LeftHandThumb3
										{
											OFFSET 2.647881 -1.528763 1.528754
											CHANNELS 6 Xposition Yposition Zposition Xrotation Yrotation Zrotation
											JOINT mixamorig:LeftHandThumb4
											{
												OFFSET 1.998924 -1.154083 1.154080
												CHANNELS 6 Xposition Yposition Zposition Xrotation Yrotation Zrotation
												End Site
												{
													OFFSET 1.884041 -1.149155 1.337651
												}
											}
										}
									}
								}
								JOINT mixamorig:LeftHandIndex1
								{
									OFFSET 9.109299 -0.518005 2.259900
									CHANNELS 6 Xposition Yposition Zposition Xrotation Yrotation Zrotation
									JOINT mixamorig:LeftHandIndex2
									{
										OFFSET 3.699997 0.000000 0.000000
										CHANNELS 3 Xrotation Yrotation Zrotation
										JOINT mixamorig:LeftHandIndex3
										{
											OFFSET 2.850006 0.000000 0.000000
											CHANNELS 3 Xrotation Yrotation Zrotation
											JOINT mixamorig:LeftHandIndex4
											{
												OFFSET 2.774895 0.000000 0.000000
												CHANNELS 3 Xrotation Yrotation Zrotation
												End Site
												{
													OFFSET 2.774902 0.000000 -0.000072
												}
											}
										}
									}
								}
								JOINT mixamorig:LeftHandMiddle1
								{
									OFFSET 9.533401 0.000000 0.000000
									CHANNELS 6 Xposition Yposition Zposition Xrotation Yrotation Zrotation
									JOINT mixamorig:LeftHandMiddle2
									{
										OFFSET 3.699997 0.000000 0.000000
										CHANNELS 3 Xrotation Yrotation Zrotation
										JOINT mixamorig:LeftHandMiddle3
										{
											OFFSET 2.949997 0.000000 0.000000
											CHANNELS 3 Xrotation Yrotation Zrotation
											JOINT mixamorig:LeftHandMiddle4
											{
												OFFSET 2.952896 0.000000 0.000000
												CHANNELS 3 Xrotation Yrotation Zrotation
												End Site
												{
													OFFSET 2.952904 0.000000 0.000165
												}
											}
										}
									}
								}
								JOINT mixamorig:LeftHandRing1
								{
									OFFSET 9.104500 -0.042999 -1.865101
									CHANNELS 6 Xposition Yposition Zposition Xrotation Yrotation Zrotation
									JOINT mixamorig:LeftHandRing2
									{
										OFFSET 3.149994 0.000000 0.000000
										CHANNELS 3 Xrotation Yrotation Zrotation
										JOINT mixamorig:LeftHandRing3
										{
											OFFSET 2.950005 0.000000 0.000000
											CHANNELS 3 Xrotation Yrotation Zrotation
											JOINT mixamorig:LeftHandRing4
											{
												OFFSET 2.644302 0.000000 0.000000
												CHANNELS 3 Xrotation Yrotation Zrotation
												End Site
												{
													OFFSET 2.644302 0.000000 0.000083
												}
											}
										}
									}
								}
								JOINT mixamorig:LeftHandPinky1
								{
									OFFSET 8.077805 -0.486893 -3.806302
									CHANNELS 6 Xposition Yposition Zposition Xrotation Yrotation Zrotation
									JOINT mixamorig:LeftHandPinky2
									{
										OFFSET 3.600006 0.000000 0.000000
										CHANNELS 3 Xrotation Yrotation Zrotation
										JOINT mixamorig:LeftHandPinky3
										{
											OFFSET 2.099998 0.000000 0.000000
											CHANNELS 3 Xrotation Yrotation Zrotation
											JOINT mixamorig:LeftHandPinky4
											{
												OFFSET 2.125496 0.000000 0.000000
												CHANNELS 3 Xrotation Yrotation Zrotation
												End Site
												{
													OFFSET 2.125504 0.000000 -0.001254
												}
											}
										}
									}
								}
							}
						}
					}
				}
			}
		}
	}
	JOINT mixamorig:RightUpLeg
	{
		OFFSET -8.207800 -6.751701 -1.599544
		CHANNELS 6 Xposition Yposition Zposition Xrotation Yrotation Zrotation
		JOINT mixamorig:RightLeg
		{
			OFFSET 0.000004 -44.370152 0.345934
			CHANNELS 3 Xrotation Yrotation Zrotation
			JOINT mixamorig:RightFoot
			{
				OFFSET 0.000004 -44.423664 -3.043535
				CHANNELS 3 Xrotation Yrotation Zrotation
				JOINT mixamorig:RightToeBase
				{
					OFFSET 0.000001 -8.728691 10.710592
					CHANNELS 3 Xrotation Yrotation Zrotation
					JOINT mixamorig:RightToe_End
					{
						OFFSET 0.000000 -0.000665 9.278101
						CHANNELS 3 Xrotation Yrotation Zrotation
						End Site
						{
							OFFSET 0.000000 -0.000665 9.278103
						}
					}
				}
			}
		}
	}
	JOINT mixamorig:LeftUpLeg
	{
		OFFSET 8.207800 -6.751701 -1.599544
		CHANNELS 6 Xposition Yposition Zposition Xrotation Yrotation Zrotation
		JOINT mixamorig:LeftLeg
		{
			OFFSET 0.000004 -44.370037 0.346940
			CHANNELS 3 Xrotation Yrotation Zrotation
			JOINT mixamorig:LeftFoot
			{
				OFFSET 0.000004 -44.423611 -3.044388
				CHANNELS 3 Xrotation Yrotation Zrotation
				JOINT mixamorig:LeftToeBase
				{
					OFFSET 0.000001 -8.728690 10.710592
					CHANNELS 3 Xrotation Yrotation Zrotation
					JOINT mixamorig:LeftToe_End
					{
						OFFSET 0.000000 -0.000680 9.278101
						CHANNELS 3 Xrotation Yrotation Zrotation
						End Site
						{
							OFFSET 0.000000 -0.000680 9.278101
						}
					}
				}
			}
		}
	}
}
MOTION
Frames: 4
Frame Time: 0.033333
0.016432 76.153511 1.798584 -14.857639 0.275209 0.766914 -0.000000 10.181547 0.131525 7.986478 0.132857 0.063255 3.685440 0.243714 0.193119 3.686084 0.269678 0.164256 -0.000000 16.740362 -2.049021 7.919082 -0.100361 0.268776 0.000001 9.617863 1.684978 -14.414327 -1.370041 4.705667 -0.000002 22.037354 7.501072 -0.000001 0.000000 -0.000000 -4.570003 11.014857 -2.160840 -2.843217 15.277724 14.612193 -0.440276 28.434831 49.671803 0.000002 33.670681 0.000019 32.643755 4.647774 -35.781691 -2.464792 -1.574003 2.681912 -4.104632 7.735911 -9.788155 21.532301 -41.305105 5.278240 -2.646263 -1.527822 1.527819 -3.066695 -10.155997 -6.004770 -1.994599 -1.151581 1.151576 0.000002 -0.000006 0.000003 -9.108294 -0.517867 2.259806 -1.929841 2.230581 26.855223 0.000258 -0.059951 0.491879 0.076736 -1.032350 8.503171 0.000002 0.000003 0.000000 -9.532504 -0.000004 -0.000000 0.556663 -2.841175 17.408298 0.116304 -1.269010 10.472925 -0.394468 -0.853627 6.595132 0.000003 -0.000003 0.000003 -9.103596 -0.043111 -1.865101 0.335778 -2.214494 13.693783 0.222798 -1.749415 14.514408 0.011266 -0.507062 4.160433 -0.000001 -0.000000 0.000003 -8.076694 -0.486737 -3.806298 0.570351 -3.394752 12.012655 0.093524 -1.138914 9.388820 0.007610 -0.325985 2.675701 -0.000003 0.000001 -0.000001 4.570399 11.014665 -2.160815 -5.293759 -20.517410 -14.003171 2.659335 -35.217231 -49.765732 0.000024 -20.415459 0.000003 21.406743 -1.464025 48.906002 2.466095 -1.576196 2.681697 5.250316 -1.002299 18.723724 13.423583 25.808683 -6.803676 2.647885 -1.528754 1.528749 0.581424 19.404414 1.876109 1.998917 -1.154075 1.154075 0.000000 0.000003 -0.000000 9.109292 -0.517997 2.259898 -2.570901 -5.714130 -20.873482 0.205839 1.674370 -14.017431 0.000001 0.007730 -0.064071 -0.000001 0.000001 0.000000 9.533409 -0.000006 -0.000001 -1.322500 -3.715900 -16.147607 0.131941 1.344265 -11.212167 0.009960 0.371158 -3.077002 -0.000000 -0.000000 0.000002 9.104494 -0.042995 -1.865104 -0.582246 -1.659383 -13.493756 0.208481 1.684928 -14.107874 0.004920 -0.260684 2.160689 0.000000 -0.000000 0.000001 8.077809 -0.486894 -3.806303 0.082366 1.188855 -14.185388 0.056314 -3.103088 -8.418327 0.001542 -0.146124 1.210983 -0.000000 -0.000000 -0.000001 -8.207801 -6.751722 -1.599537 -57.962809 -5.123041 -19.073594 77.321457 3.617352 -2.552354 3.117928 0.144957 -5.445491 -1.393497 -0.083969 3.120285 -0.000000 -0.000001 0.000000 8.207798 -6.751708 -1.599543 -56.733641 7.708084 18.842170 76.383993 -0.527220 1.996761 -4.937500 -0.096931 0.954323 0.905094 -0.000026 0.000001 0.000000 0.000003 0.000000 
0.005445 76.150452 1.795023 -14.863953 0.270873 0.769169 -0.000000 10.181543 0.131522 7.985108 0.134066 0.062547 3.684084 0.245026 0.191279 3.684736 0.270698 0.162292 -0.000000 16.740358 -2.049023 7.893062 -0.097082 0.268880 0.000002 9.617863 1.684974 -14.374239 -1.346388 4.663376 -0.000002 22.037354 7.501073 -0.000001 -0.000000 0.000000 -4.570000 11.014875 -2.160840 -2.844440 15.273971 14.621806 -0.424023 28.438020 49.643362 -0.000024 33.703630 0.000060 32.628999 4.582729 -35.756105 -2.464794 -1.573985 2.681908 -4.099695 7.687094 -9.765501 21.524076 -41.297547 5.273463 -2.646258 -1.527839 1.527825 -3.070001 -10.109658 -5.996285 -1.994597 -1.151583 1.151578 -0.000000 -0.000001 -0.000000 -9.108307 -0.517868 2.259803 -1.932301 2.240861 26.833038 0.000237 -0.058655 0.481283 0.076606 -1.031403 8.495346 -0.000000 0.000001 0.000001 -9.532488 0.000009 -0.000000 0.551135 -2.824518 17.387816 0.116021 -1.267501 10.460362 -0.394607 -0.853305 6.592346 0.000001 0.000000 0.000003 -9.103600 -0.043106 -1.865100 0.334712 -2.211419 13.662499 0.222686 -1.749039 14.511031 0.011303 -0.507260 4.161906 -0.000000 -0.000001 0.000002 -8.076694 -0.486724 -3.806302 0.571958 -3.407965 11.977065 0.093117 -1.136444 9.368040 0.007596 -0.325460 2.671754 -0.000002 -0.000000 -0.000001 4.570406 11.014702 -2.160815 -5.293467 -20.517238 -14.002273 2.661424 -35.247099 -49.753782 -0.000013 -20.357254 -0.000008 21.380613 -1.499287 48.907880 2.466106 -1.576181 2.681697 5.250316 -1.002297 18.723722 13.423582 25.808683 -6.803678 2.647883 -1.528753 1.528750 0.581424 19.404405 1.876110 1.998917 -1.154091 1.154079 0.000000 0.000003 -0.000000 9.109292 -0.517993 2.259899 -2.570897 -5.714131 -20.873483 0.205842 1.674371 -14.017433 0.000002 0.007730 -0.064071 -0.000001 -0.000000 0.000003 9.533409 0.000028 0.000002 -1.322496 -3.715900 -16.147607 0.131941 1.344264 -11.212166 0.009959 0.371159 -3.077002 -0.000000 -0.000000 0.000002 9.104506 -0.042977 -1.865101 -0.582244 -1.659383 -13.493756 0.208481 1.684928 -14.107875 0.004921 -0.260685 2.160690 -0.000000 -0.000000 0.000002 8.077802 -0.486877 -3.806301 0.082365 1.188856 -14.185389 0.056312 -3.103088 -8.418329 0.001542 -0.146124 1.210981 -0.000001 -0.000000 0.000004 -8.207801 -6.751716 -1.599545 -57.960801 -5.132227 -19.060114 77.322536 3.558713 -2.557139 3.094521 0.147173 -5.466499 -1.375344 -0.084193 3.124445 -0.000000 -0.000000 -0.000000 8.207797 -6.751715 -1.599553 -56.737101 7.701825 18.852290 76.386240 -0.514926 1.992882 -4.898327 -0.096146 0.936031 0.908277 -0.000004 -0.000002 0.000000 -0.000000 0.000000 
-0.007495 76.144981 1.788307 -14.872896 0.260255 0.778064 -0.000000 10.181544 0.131527 7.981410 0.137395 0.060636 3.680376 0.248668 0.186175 3.681035 0.273528 0.156844 0.000000 16.740358 -2.049024 7.816276 -0.088098 0.271277 0.000002 9.617851 1.684976 -14.264276 -1.281699 4.543471 -0.000001 22.037354 7.501074 -0.000001 0.000000 -0.000000 -4.569998 11.014885 -2.160841 -2.847468 15.264143 14.646118 -0.387880 28.453069 49.581371 -0.000010 33.804256 0.000028 32.593830 4.377966 -35.684354 -2.464803 -1.573995 2.681904 -4.085257 7.543805 -9.699159 21.500017 -41.275407 5.259504 -2.646277 -1.527815 1.527818 -3.079758 -9.973858 -5.971459 -1.994605 -1.151585 1.151574 0.000003 -0.000003 -0.000000 -9.108307 -0.517868 2.259801 -1.939488 2.271028 26.768030 0.000209 -0.054836 0.450178 0.076192 -1.028645 8.472389 0.000002 0.000001 -0.000001 -9.532493 0.000005 -0.000004 0.534951 -2.775708 17.327778 0.115213 -1.263090 10.423497 -0.395029 -0.852276 6.584181 0.000001 -0.000001 0.000004 -9.103599 -0.043104 -1.865106 0.331550 -2.202349 13.570759 0.222390 -1.747865 14.501146 0.011425 -0.507796 4.166201 -0.000001 -0.000001 -0.000001 -8.076706 -0.486719 -3.806305 0.576578 -3.446703 11.872674 0.091926 -1.129099 9.307140 0.007511 -0.324055 2.660161 0.000002 -0.000002 0.000002 4.570402 11.014701 -2.160817 -5.293518 -20.517053 -14.002621 2.673269 -35.313967 -49.728794 0.000005 -20.252752 0.000004 21.320499 -1.558069 48.916746 2.466103 -1.576183 2.681699 5.250318 -1.002302 18.723715 13.423581 25.808684 -6.803678 2.647891 -1.528749 1.528748 0.581422 19.404407 1.876106 1.998917 -1.154076 1.154069 -0.000001 -0.000002 -0.000000 9.109288 -0.518001 2.259901 -2.570902 -5.714131 -20.873483 0.205842 1.674371 -14.017432 0.000002 0.007730 -0.064071 0.000000 0.000002 -0.000002 9.533399 0.000025 0.000001 -1.322497 -3.715901 -16.147611 0.131941 1.344265 -11.212166 0.009960 0.371159 -3.077001 -0.000001 -0.000001 0.000002 9.104498 -0.042995 -1.865103 -0.582244 -1.659383 -13.493757 0.208481 1.684927 -14.107874 0.004919 -0.260685 2.160690 -0.000001 -0.000000 0.000000 8.077813 -0.486896 -3.806304 0.082366 1.188855 -14.185387 0.056313 -3.103088 -8.418326 0.001543 -0.146124 1.210982 -0.000001 0.000000 0.000000 -8.207804 -6.751718 -1.599543 -57.962686 -5.137139 -19.040978 77.327966 3.513366 -2.570794 3.075487 0.150926 -5.504354 -1.360582 -0.085328 3.145190 -0.000000 0.000001 -0.000001 8.207800 -6.751726 -1.599545 -56.752069 7.696058 18.866419 76.396205 -0.502297 1.982202 -4.798234 -0.096134 0.934668 0.917203 0.000003 -0.000002 0.000000 -0.000001 0.000000 
-0.021008 76.137146 1.778572 -14.880838 0.240729 0.794416 -0.000000 10.181540 0.131528 7.975995 0.142320 0.057657 3.674836 0.254202 0.178432 3.675519 0.277821 0.148579 0.000000 16.740362 -2.049022 7.690629 -0.074637 0.279106 0.000000 9.617832 1.684981 -14.099502 -1.185543 4.356338 0.000001 22.037384 7.501075 -0.000000 0.000000 0.000000 -4.570001 11.014879 -2.160839 -2.851395 15.250334 14.678760 -0.334804 28.466085 49.486708 -0.000013 33.968023 0.000032 32.543731 4.060579 -35.569313 -2.464793 -1.574002 2.681908 -4.061812 7.310816 -9.591542 21.460934 -41.239357 5.236864 -2.646267 -1.527800 1.527815 -3.095833 -9.753232 -5.931230 -1.994594 -1.151585 1.151574 0.000002 -0.000003 0.000001 -9.108294 -0.517853 2.259802 -1.951035 2.320019 26.662431 0.000170 -0.048686 0.399612 0.075523 -1.024151 8.435128 0.000001 -0.000000 0.000002 -9.532494 0.000003 -0.000002 0.508903 -2.696338 17.230266 0.113896 -1.255912 10.363648 -0.395709 -0.850649 6.570896 0.000001 -0.000003 0.000004 -9.103599 -0.043107 -1.865104 0.326457 -2.187597 13.421751 0.221901 -1.745960 14.485062 0.011617 -0.508638 4.173231 -0.000001 -0.000001 0.000003 -8.076694 -0.486711 -3.806300 0.583723 -3.509600 11.703016 0.089976 -1.117208 9.208275 0.007418 -0.321776 2.641267 0.000000 -0.000000 -0.000002 4.570401 11.014685 -2.160814 -5.294664 -20.517028 -14.006805 2.704332 -35.411464 -49.683090 -0.000028 -20.117064 -0.000003 21.224905 -1.633732 48.931923 2.466091 -1.576215 2.681700 5.250319 -1.002297 18.723724 13.423583 25.808683 -6.803680 2.647879 -1.528763 1.528752 0.581424 19.404412 1.876111 1.998921 -1.154109 1.154078 0.000000 -0.000001 0.000001 9.109288 -0.518031 2.259900 -2.570900 -5.714130 -20.873483 0.205840 1.674371 -14.017432 0.000003 0.007730 -0.064069 0.000001 0.000001 0.000001 9.533410 0.000013 -0.000002 -1.322495 -3.715900 -16.147607 0.131941 1.344265 -11.212170 0.009960 0.371159 -3.077003 -0.000000 -0.000001 0.000004 9.104502 -0.042993 -1.865102 -0.582245 -1.659383 -13.493758 0.208480 1.684927 -14.107872 0.004920 -0.260685 2.160690 0.000000 0.000000 0.000000 8.077809 -0.486892 -3.806303 0.082366 1.188856 -14.185390 0.056314 -3.103088 -8.418331 0.001542 -0.146124 1.210983 0.000001 -0.000000 0.000002 -8.207804 -6.751719 -1.599546 -57.978669 -5.133845 -19.019142 77.339345 3.477017 -2.591371 3.088504 0.154699 -5.541516 -1.369638 -0.086643 3.168811 -0.000001 0.000001 -0.000001 8.207800 -6.751705 -1.599544 -56.784663 7.689275 18.881573 76.417044 -0.489772 1.966231 -4.621195 -0.096901 0.954377 0.931115 -0.000004 0.000001 -0.000000 0.000001 -0.000000 
